<?xml version="1.0" encoding="UTF-8" standalone="no"?>
<!-- Generator: Adobe Illustrator 16.0.4, SVG Export Plug-In . SVG Version: 6.00 Build 0)  -->

<svg
   version="1.1"
   id="Layer_1"
   x="0px"
   y="0px"
   width="306px"
   height="344.35px"
   viewBox="0 0 306 344.35"
   enable-background="new 0 0 306 344.35"
   xml:space="preserve"
   sodipodi:docname="usingcpp.svg"
   inkscape:version="1.3 (0e150ed6c4, 2023-07-21)"
   xmlns:inkscape="http://www.inkscape.org/namespaces/inkscape"
   xmlns:sodipodi="http://sodipodi.sourceforge.net/DTD/sodipodi-0.dtd"
   xmlns="http://www.w3.org/2000/svg"
   xmlns:svg="http://www.w3.org/2000/svg"><defs
   id="defs6"><pattern
     id="EMFhbasepattern"
     patternUnits="userSpaceOnUse"
     width="6"
     height="6"
     x="0"
     y="0" /></defs><sodipodi:namedview
   id="namedview6"
   pagecolor="#ffffff"
   bordercolor="#000000"
   borderopacity="0.25"
   inkscape:showpageshadow="2"
   inkscape:pageopacity="0.0"
   inkscape:pagecheckerboard="0"
   inkscape:deskcolor="#d1d1d1"
   inkscape:zoom="1.2043506"
   inkscape:cx="70.992618"
   inkscape:cy="129.11523"
   inkscape:window-width="2560"
   inkscape:window-height="1369"
   inkscape:window-x="-8"
   inkscape:window-y="-8"
   inkscape:window-maximized="1"
   inkscape:current-layer="Layer_1" />&#10;<path
   fill="#00599c"
   d="m 295.09598,254.21466 c 2.28811,-3.96344 3.70995,-8.4291 3.70995,-12.43924 V 102.57459 c 0,-4.010145 -1.41994,-8.474853 -3.709,-12.438297 L 153,172.17548 Z"
   id="path1"
   style="stroke-width:0.95298;fill:#29599b;fill-opacity:1" />&#10;<path
   fill="#004482"
   d="m 165.62698,333.24625 120.55197,-69.59994 c 3.47266,-2.00507 6.62893,-5.46725 8.91703,-9.43165 L 153,172.17548 10.904017,254.21562 c 2.288105,3.96344 5.445327,7.42657 8.917034,9.43069 l 120.551959,69.59994 c 6.94437,4.01014 18.30961,4.01014 25.25397,0 z"
   id="path2"
   style="stroke-width:0.95298;fill:#9348b4;fill-opacity:1" />&#10;<path
   fill="#659ad2"
   d="m 295.09693,90.13534 c -2.28905,-3.964397 -5.44628,-7.426573 -8.91798,-9.431643 L 165.62698,11.103757 c -6.94436,-4.0101398 -18.3096,-4.0101398 -25.25397,0 L 19.821051,80.703697 C 12.875732,84.712884 7.1940657,94.555261 7.1940657,102.57459 v 139.20083 c 0,4.01014 1.4208926,8.4758 3.7099513,12.43924 L 153,172.17548 Z"
   id="path3"
   style="stroke-width:0.95298;fill:#757cb3;fill-opacity:1" />&#10;<g
   id="g4"
   transform="matrix(0.95297997,0,0,0.95297997,7.1940657,8.0961524)"
   style="fill:#ffeeaa;fill-opacity:1;fill-rule:nonzero">&#10;	<path
   fill="#ffffff"
   d="m 153,274.175 c -56.243,0 -102,-45.757 -102,-102 0,-56.243 45.757,-102 102,-102 36.292,0 70.139,19.53 88.331,50.968 l -44.143,25.544 C 188.083,130.951 171.15,121.175 153,121.175 c -28.122,0 -51,22.878 -51,51 0,28.121 22.878,51 51,51 18.152,0 35.085,-9.776 44.191,-25.515 l 44.143,25.543 c -18.192,31.441 -52.04,50.972 -88.334,50.972 z"
   id="path4"
   style="fill:#ffeeaa;fill-opacity:1;fill-rule:nonzero" />&#10;</g>&#10;<g
   id="g5"
   transform="matrix(0.95297997,0,0,0.95297997,7.1940657,8.0961524)"
   style="fill:#ffeeaa">&#10;	<polygon
   fill="#ffffff"
   points="232.334,177.841 232.334,189.175 243.666,189.175 243.666,177.841 255,177.841 255,166.508 243.666,166.508 243.666,155.175 232.334,155.175 232.334,166.508 221,166.508 221,177.841 "
   id="polygon4"
   style="fill:#ffeeaa" />&#10;</g>&#10;<g
   id="g6"
   transform="matrix(0.95297997,0,0,0.95297997,7.1940657,8.0961524)"
   style="fill:#ffeeaa">&#10;	<polygon
   fill="#ffffff"
   points="274.834,177.841 274.834,189.175 286.166,189.175 286.166,177.841 297.5,177.841 297.5,166.508 286.166,166.508 286.166,155.175 274.834,155.175 274.834,166.508 263.5,166.508 263.5,177.841 "
   id="polygon5"
   style="fill:#ffeeaa" />&#10;</g>&#10;</svg>
